<svg id="Layer_2" data-name="Layer 2" xmlns="http://www.w3.org/2000/svg" viewBox="0 0 1024 1024"><defs><style>.cls-1{fill:#fff;}</style></defs><title>mybrandlogo</title><path class="cls-1" d="M551,51.53H63a12,12,0,0,0-12,12V963.37a11.92,11.92,0,0,0,1.57,5.9Q76.1,861.11,99.66,752.94a393.48,393.48,0,0,1,122.67-68.71l158.3,100-18.3,27.84L448,916.46v58.91h30.33V916.45L564,812.1l-18.27-27.84,158.3-100a393.06,393.06,0,0,1,122.63,68.71q10.86,49.89,21.75,99.79c77.92-77,126.38-183.69,126.38-301.2V475.37C974.79,242.26,784.06,51.53,551,51.53ZM392,215.52c9.72-5,21.34-3.11,26.07-2.34,15.53,2.58,27.76,12,36.25,18.66,2.68,2.07,5,4,6.88,5.73,1.9-1.69,4.21-3.66,6.88-5.73,8.49-6.63,20.73-16.08,36.26-18.66,4.73-.77,16.35-2.67,26.06,2.34,20.59,10.68,23.65,48,32.54,89.77A586,586,0,0,0,598,415.05q-12.4,5.94-25.85,11.23a407.09,407.09,0,0,1-109,26.68v.39l-2-.19-1.95.19V453a407.18,407.18,0,0,1-109-26.68q-13.44-5.29-25.85-11.23a586.07,586.07,0,0,0,35.1-109.76C368.37,263.48,371.43,226.2,392,215.52ZM448,900.8l-72.4-93.94,28-26.08L303.19,721.85l-91.33-59.8,101.76-84.8-10.43,62.41L448,778.17ZM376.25,677.27q-27.08-25.72-51.87-51L331,557.43l12.82,45.47,114.67-22.7,114.66,22.7,12.82-45.47,6.59,68.85c-18.73,20.49-39.2,41.68-61.46,63.17-24.06,23.21-47.68,44.33-70.46,63.49C433,729.57,404.81,704.39,376.25,677.27ZM332.17,524.48l19.14,60.31,85.53-14.21-87.56,17.69Zm146.16,46.1,85.52,14.21L583,524.48l-17.1,63.79Zm141,151.27L518.82,780.78l28,26.08-72.4,93.94V778.17L619.28,639.66l-10.44-62.41,101.76,84.8ZM469.7,502.35c-143.27,3.52-276.16-79-269.3-106.1,2.54-10.07,26.08-19.3,124-12.84L303,423.08C324.89,437,383.6,470.34,465,468.54a291.05,291.05,0,0,0,149.24-45.46L598,383.43c98.11-9.85,123-1.88,125.82,8.16C731.17,417.27,606.91,499,469.7,502.35Z"/><path class="cls-1" d="M643.93,850.47h-3.85v17.59l-2.54.45h6.39a1.17,1.17,0,0,0,1.31-1.31V851.78A1.17,1.17,0,0,0,643.93,850.47Z"/><path class="cls-1" d="M740,818.17H595a12,12,0,0,0-12,12v58.56a12,12,0,0,0,12,12H740a12,12,0,0,0,12-12V830.21A12,12,0,0,0,740,818.17ZM621.75,857l-12.54,4.71,12.54,4.72v6.43l-20.58-7.7V858.3l20.58-7.71Zm30.34,14.92a2.28,2.28,0,0,1-2.58,2.58H633.23v-30h16.28a2.28,2.28,0,0,1,2.58,2.58Zm9.31,2.58h-6.85v-30h6.85Zm31,0H685.5v-16.6l.82-5.7-5.12,22.3h-6.15l-5.13-22.3.82,5.7v16.6H663.9v-30h10.45L678.12,861l3.78-16.53h10.45Zm9.35,0h-6.85v-30h6.85Zm32.1-9.34-20.58,7.7v-6.43l12.55-4.72L713.22,857v-6.4l20.58,7.71Z"/></svg>