<svg id="Layer_2" data-name="Layer 2" xmlns="http://www.w3.org/2000/svg" viewBox="0 0 14400 14400"><defs><style>.cls-1{fill:#fff;}</style></defs><title>mybrandlogo</title><path class="cls-1" d="M7238.45,6739h-488a12,12,0,0,0-12,12v899.84a11.92,11.92,0,0,0,1.57,5.9q23.58-108.17,47.14-216.33a393.48,393.48,0,0,1,122.67-68.71l158.3,100-18.3,27.84L7135.5,7604v58.91h30.33V7604l85.67-104.35-18.27-27.84,158.3-100a393.06,393.06,0,0,1,122.63,68.71q10.86,49.89,21.75,99.79c77.92-77,126.38-183.69,126.38-301.2v-76.16C7662.29,6929.76,7471.56,6739,7238.45,6739Zm-158.94,164c9.72-5,21.34-3.11,26.07-2.34,15.53,2.58,27.76,12,36.25,18.66,2.68,2.07,5,4,6.88,5.73,1.9-1.69,4.21-3.66,6.88-5.73,8.49-6.63,20.73-16.08,36.26-18.66,4.73-.77,16.35-2.67,26.06,2.34,20.59,10.68,23.65,48,32.54,89.77a586,586,0,0,0,35.09,109.76q-12.4,5.94-25.85,11.23a407.09,407.09,0,0,1-109,26.68v.39l-2-.19-1.95.19v-.39a407.18,407.18,0,0,1-109-26.68q-13.44-5.29-25.85-11.23a586.07,586.07,0,0,0,35.1-109.76C7055.87,6951,7058.93,6913.7,7079.51,6903Zm56,685.28-72.4-93.94,28-26.08-100.45-58.93-91.33-59.8,101.76-84.8-10.43,62.41,144.81,138.51Zm-71.75-223.53q-27.08-25.73-51.87-51l6.59-68.82,12.82,45.47L7146,7267.7l114.66,22.7,12.82-45.47,6.59,68.85c-18.73,20.49-39.2,41.68-61.46,63.17-24.06,23.21-47.68,44.33-70.46,63.49C7120.53,7417.07,7092.31,7391.89,7063.75,7364.77ZM7019.67,7212l19.14,60.31,85.53-14.21-87.56,17.69Zm146.16,46.1,85.52,14.21,19.14-60.31-17.1,63.79Zm140.95,151.27-100.46,58.93,28.05,26.08L7162,7588.3V7465.67l144.81-138.51-10.44-62.41,101.76,84.8Zm-149.58-219.5c-143.27,3.52-276.16-79-269.3-106.1,2.54-10.07,26.08-19.3,124-12.84l-21.39,39.67c21.9,13.95,80.61,47.26,162.05,45.46a291.05,291.05,0,0,0,149.24-45.46l-16.24-39.65c98.11-9.85,123-1.88,125.82,8.16C7418.67,7104.77,7294.41,7186.48,7157.2,7189.85Z"/><path class="cls-1" d="M7331.43,7538h-3.85v17.59l-2.54.45h6.39a1.17,1.17,0,0,0,1.31-1.31v-15.42A1.17,1.17,0,0,0,7331.43,7538Z"/><path class="cls-1" d="M7427.45,7505.67H7282.52a12,12,0,0,0-12,12v58.56a12,12,0,0,0,12,12h144.93a12,12,0,0,0,12-12v-58.56A12,12,0,0,0,7427.45,7505.67Zm-118.2,38.82-12.54,4.71,12.54,4.72v6.43l-20.58-7.7v-6.85l20.58-7.71Zm30.34,14.92A2.28,2.28,0,0,1,7337,7562h-16.28v-30H7337a2.28,2.28,0,0,1,2.58,2.58Zm9.31,2.58h-6.85v-30h6.85Zm31,0H7373v-16.6l.82-5.7-5.12,22.3h-6.15l-5.13-22.3.82,5.7V7562h-6.84v-30h10.45l3.77,16.53,3.78-16.53h10.45Zm9.35,0h-6.85v-30h6.85Zm32.1-9.34-20.58,7.7v-6.43l12.55-4.72-12.55-4.71v-6.4l20.58,7.71Z"/></svg>