<svg xmlns="http://www.w3.org/2000/svg" viewBox="0 0 1024 1024"><defs><style>.cls-1,.cls-2{fill:#fff;}.cls-2{font-size:50px;font-family:Galantic-Regular, Galantic;}.cls-3{font-size:41px;}</style></defs><title>mylogo</title><g id="Layer_3" data-name="Layer 3"><path class="cls-1" d="M375.78,336a584.66,584.66,0,0,0,35-109.48c8.87-41.7,11.92-78.88,32.45-89.53,9.69-5,21.28-3.1,26-2.33,15.49,2.57,27.69,12,36.16,18.61,4.18,3.24,7.48,6.22,9.67,8.28q-.43,8.66-.86,17.3-.69,26.74-1.39,53.49l1.39,141.86a406.08,406.08,0,0,1-112.64-27Q388.15,341.92,375.78,336Z"/><path class="cls-1" d="M648.72,336a584.66,584.66,0,0,1-35-109.48c-8.87-41.7-11.92-78.88-32.45-89.53-9.69-5-21.28-3.1-26-2.33-15.49,2.57-27.69,12-36.16,18.61-4.18,3.24-7.48,6.22-9.67,8.28q.44,8.66.86,17.3.69,26.74,1.39,53.49l-1.39,141.86a406.08,406.08,0,0,0,112.64-27Q636.35,341.92,648.72,336Z"/><path class="cls-1" d="M375.78,304.44,354.44,344c21.85,13.92,80.4,47.14,161.63,45.35A290.27,290.27,0,0,0,664.91,344l-16.19-39.54c97.85-9.83,122.64-1.88,125.49,8.14,7.29,25.61-116.65,107.11-253.49,110.47-142.9,3.51-275.44-78.81-268.6-105.82C254.66,307.2,278.13,298,375.78,304.44Z"/><path class="cls-1" d="M382.35,478l12.79,45.35L509.5,500.71q1.08,86.15,2.15,172.29c-27.51-23.31-55.65-48.43-84.14-75.47q-27-25.66-51.73-50.89Z"/><path class="cls-1" d="M636.65,478l-12.79,45.35L509.5,500.71q1.08,86.15,2.15,172.29c22.72-19.11,46.28-40.18,70.27-63.33,22.21-21.43,42.62-42.56,61.3-63Z"/><polygon class="cls-1" points="383.55 445.14 400.61 508.76 487.94 491.12 402.64 505.29 383.55 445.14"/><polygon class="cls-1" points="633.71 445.14 616.65 508.76 529.32 491.12 614.62 505.29 633.71 445.14"/><polygon class="cls-1" points="365.05 497.77 354.64 560.01 499.07 698.16 499.07 820.47 426.86 726.78 454.83 700.76 354.64 641.99 263.55 582.35 365.05 497.77"/><polygon class="cls-1" points="659.49 497.77 669.9 560.01 525.47 698.16 525.47 820.47 597.68 726.78 569.71 700.76 669.9 641.99 760.98 582.35 659.49 497.77"/><path class="cls-1" d="M274,604.47l157.88,99.76L413.63,732l85.44,104.09v59.86h-396Q127.37,784.47,151.65,673A392.34,392.34,0,0,1,274,604.47Z"/><path class="cls-1" d="M876.74,673a392,392,0,0,0-122.31-68.53L596.55,704.23,614.77,732,529.32,836.08v59.86h396Q901,784.47,876.74,673ZM802.25,808.47a12,12,0,0,1-12,12H645.71a12,12,0,0,1-12-12V750.06a12,12,0,0,1,12-12H790.25a12,12,0,0,1,12,12Z"/><text class="cls-2" transform="translate(645.43 797.65)">&lt; <tspan class="cls-3" x="38.1" y="0">DIMI </tspan><tspan x="118.5" y="0">&gt;</tspan></text></g></svg>