<svg xmlns="http://www.w3.org/2000/svg" viewBox="0 0 14400 14400"><defs><style>.cls-1,.cls-2{fill:#fff;}.cls-2{font-size:50px;font-family:Galantic-Regular, Galantic;}.cls-3{font-size:41px;}</style></defs><title>mylogo</title><g id="Layer_3" data-name="Layer 3"><path class="cls-1" d="M7063.28,7023.51a584.66,584.66,0,0,0,35-109.48c8.87-41.7,11.92-78.88,32.45-89.53,9.69-5,21.28-3.1,26-2.33,15.49,2.57,27.69,12,36.16,18.61,4.18,3.24,7.48,6.22,9.67,8.28q-.43,8.65-.86,17.3-.69,26.74-1.39,53.49l1.39,141.86a406.08,406.08,0,0,1-112.64-27Q7075.65,7029.42,7063.28,7023.51Z"/><path class="cls-1" d="M7336.22,7023.51a584.66,584.66,0,0,1-35-109.48c-8.87-41.7-11.92-78.88-32.45-89.53-9.69-5-21.28-3.1-26-2.33-15.49,2.57-27.69,12-36.16,18.61-4.18,3.24-7.48,6.22-9.67,8.28q.43,8.65.86,17.3.69,26.74,1.39,53.49l-1.39,141.86a406.08,406.08,0,0,0,112.64-27Q7323.85,7029.42,7336.22,7023.51Z"/><path class="cls-1" d="M7063.28,6991.94l-21.34,39.54c21.85,13.92,80.4,47.14,161.63,45.35a290.27,290.27,0,0,0,148.84-45.35l-16.19-39.54c97.85-9.83,122.64-1.88,125.49,8.14,7.29,25.61-116.65,107.11-253.49,110.47-142.9,3.51-275.44-78.81-268.6-105.82C6942.16,6994.7,6965.63,6985.51,7063.28,6991.94Z"/><path class="cls-1" d="M7069.85,7165.53l12.79,45.35L7197,7188.21q1.08,86.15,2.15,172.29c-27.51-23.31-55.65-48.43-84.14-75.47q-27-25.66-51.73-50.89Z"/><path class="cls-1" d="M7324.15,7165.53l-12.79,45.35L7197,7188.21q1.08,86.15,2.15,172.29c22.72-19.11,46.28-40.18,70.27-63.33,22.21-21.43,42.62-42.56,61.3-63Z"/><polygon class="cls-1" points="7071.05 7132.65 7088.11 7196.26 7175.44 7178.62 7090.14 7192.79 7071.05 7132.65"/><polygon class="cls-1" points="7321.21 7132.65 7304.15 7196.26 7216.82 7178.62 7302.12 7192.79 7321.21 7132.65"/><polygon class="cls-1" points="7052.55 7185.27 7042.14 7247.51 7186.57 7385.66 7186.57 7507.97 7114.35 7414.28 7142.33 7388.26 7042.14 7329.49 6951.05 7269.85 7052.55 7185.27"/><polygon class="cls-1" points="7346.99 7185.27 7357.4 7247.51 7212.97 7385.66 7212.97 7507.97 7285.18 7414.28 7257.21 7388.26 7357.4 7329.49 7448.48 7269.85 7346.99 7185.27"/><path class="cls-1" d="M6961.46,7292l157.88,99.76-18.21,27.76,85.44,104.09v59.86h-396q24.3-111.46,48.58-222.94A392.34,392.34,0,0,1,6961.46,7292Z"/><path class="cls-1" d="M7564.24,7360.5A392,392,0,0,0,7441.93,7292l-157.88,99.76,18.22,27.76-85.45,104.09v59.86h396Q7588.54,7472,7564.24,7360.5ZM7489.75,7496a12,12,0,0,1-12,12H7333.21a12,12,0,0,1-12-12v-58.41a12,12,0,0,1,12-12h144.54a12,12,0,0,1,12,12Z"/><text class="cls-2" transform="translate(7332.93 7485.15)">&lt; <tspan class="cls-3" x="38.1" y="0">DIMI </tspan><tspan x="118.5" y="0">&gt;</tspan></text></g></svg>